<svg preserveAspectRatio="xMidYMid meet" width="100%" height="100%" overflow="visible" style="display: block;" viewBox="0 0 79.2257 140" fill="none" xmlns="http://www.w3.org/2000/svg">
<g id="Company Logos / Internal / MaxPreps / Icon / Black">
<path id="Fill 1" fill-rule="evenodd" clip-rule="evenodd" d="M77.0251 0H49.9643L43.5439 22.362C48.9788 24.0824 52.9282 29.2634 52.9282 35.4022C52.9282 42.9444 46.9667 49.0529 39.6128 49.0529C32.2589 49.0529 26.2975 42.9362 26.2975 35.394C26.2975 29.2047 30.3139 23.9997 35.8187 22.3235L29.3428 0H2.20058L23.8819 67.1942L0 140H27.7126L39.6943 101.938L51.5945 140H79.2257L55.5072 67.3159L77.0251 0Z" fill="var(--fill-0, black)"/>
<path id="Fill 3" fill-rule="evenodd" clip-rule="evenodd" d="M30.1376 35.662C30.1376 41.1956 34.4322 45.6814 39.7297 45.6814C45.0272 45.6814 49.3218 41.1956 49.3218 35.662C49.3218 30.1289 45.0272 25.6426 39.7297 25.6426C34.4322 25.6426 30.1376 30.1289 30.1376 35.662Z" fill="var(--fill-0, black)"/>
</g>
</svg>
