<svg preserveAspectRatio="xMidYMid meet" width="100%" height="100%" overflow="visible" style="display: block;" viewBox="0 0 304 85" fill="none" xmlns="http://www.w3.org/2000/svg">
<svg x="0" y="0" width="304" height="85" viewBox="0 0 304 85" preserveAspectRatio="xMidYMid meet">
<g id="Company Logos / Internal / MaxPreps / Red">
<path id="Fill 1" fill-rule="evenodd" clip-rule="evenodd" d="M128.666 0H112.211L108.307 13.5769C111.612 14.6215 114.013 17.767 114.013 21.4942C114.013 26.0734 110.389 29.7821 105.917 29.7821C101.446 29.7821 97.8207 26.0684 97.8207 21.4892C97.8207 17.7314 100.263 14.5712 103.61 13.5536L99.6724 0H83.1686L96.3519 40.7965L81.8305 85H98.6812L105.967 61.8908L113.203 85H130.004L115.582 40.8704L128.666 0Z" fill="var(--fill-0, #E10500)"/>
<path id="Fill 3" fill-rule="evenodd" clip-rule="evenodd" d="M100.156 21.6519C100.156 25.0116 102.767 27.7351 105.988 27.7351C109.209 27.7351 111.821 25.0116 111.821 21.6519C111.821 18.2925 109.209 15.5687 105.988 15.5687C102.767 15.5687 100.156 18.2925 100.156 21.6519Z" fill="var(--fill-0, #E10500)"/>
<path id="Fill 5" fill-rule="evenodd" clip-rule="evenodd" d="M301.869 29.5017L304 22.0387L298.003 16.6495H278.179L269.456 22.039L265.144 36.597L282.853 41.7996L281.325 47.0275H277.812L279.176 42.354H263.508L260.931 51.1849L267.362 57.2509H286.22L295.376 51.5489L300.035 35.6001L282.629 30.5381L283.729 26.8729H287.248L286.479 29.5017H301.869Z" fill="var(--fill-0, #E10500)"/>
<path id="Fill 7" fill-rule="evenodd" clip-rule="evenodd" d="M247.604 34.7595H243.979L246.34 26.8729H249.834L247.604 34.7595ZM266.747 22.138L260.688 16.6495H233.813L221.993 57.2509H237.419L241.062 44.6907H252.659L261.766 39.2948L266.747 22.138Z" fill="var(--fill-0, #E10500)"/>
<path id="Fill 9" fill-rule="evenodd" clip-rule="evenodd" d="M208.182 44.9828L209.282 41.1856H221.113L224.26 30.6701H212.47L213.551 26.8729H228.126L230.955 16.6495H200.773L188.915 57.2509H219.061L222.625 44.9828H208.182Z" fill="var(--fill-0, #E10500)"/>
<path id="Fill 11" fill-rule="evenodd" clip-rule="evenodd" d="M177.948 32.4227H174.229L175.848 26.8729H179.561L177.948 32.4227ZM186.801 36.4694L193.243 32.5661L196.168 22.282L190.188 16.6495H163.128L151.302 57.2509H166.954L171.664 41.1856H175.394L170.706 57.2509H186.02L190.964 40.2783L186.801 36.4694Z" fill="var(--fill-0, #E10500)"/>
<path id="Fill 13" fill-rule="evenodd" clip-rule="evenodd" d="M139.767 34.6809C139.767 34.6809 136.1 34.7396 136.094 34.7396L138.38 26.8729H142.047L139.767 34.6809ZM158.774 22.1575L152.869 16.6495H126.549L118.745 40.7474L124.242 57.2509H129.446L133.2 44.6907H144.575L153.793 39.3874L158.774 22.1575Z" fill="var(--fill-0, #E10500)"/>
<g id="Group 17">
<mask id="mask0_0_13" style="mask-type:alpha" maskUnits="userSpaceOnUse" x="0" y="16" width="94" height="42">
<g id="mask 2">
<path id="Vector" d="M0 16.6495H93.0188V57.2509H0V16.6495Z" fill="var(--fill-0, white)"/>
</g>
</mask>
<g mask="url(#mask0_0_13)">
<path id="Fill 15" fill-rule="evenodd" clip-rule="evenodd" d="M72.3518 40.8982L78.5308 26.8729H79.7035L78.0388 40.9236L72.3518 40.8982ZM87.8148 57.2509L93.0187 40.8304L85.433 16.6495H71.2008L52.168 54.7897L62.7684 16.6495H41.743L30.4976 39.1681L32.2731 16.6495H11.3241L-0.000144648 57.2509H12.8413L19.8667 32.3643L19.2349 57.2509H32.1329L45.4402 32.3643L38.3034 57.2509H66.3596L69.1676 50.6939L76.7198 50.705L75.8459 57.2509H87.8148Z" fill="var(--fill-0, #E10500)"/>
</g>
</g>
</g>
</svg>
<svg x="140.77" y="60.06" width="152.55" height="25.35" viewBox="0 0 152.55 25.3463" preserveAspectRatio="xMidYMid meet">
<g id="Advantage">
<path id="Vector" d="M16.7659 24.9497L15.7324 0.396609H9.39504L2.42831e-05 24.9497H5.51747L7.19148 20.0289H11.2911V24.9497H16.7573H16.7659ZM11.2143 15.7903H8.69469L11.1545 8.85673L11.2143 15.7903Z" fill="var(--fill-0, #414042)"/>
<path id="Vector_2" d="M35.7012 2.38372C34.5738 1.06182 32.5837 0.396609 29.7823 0.396609H22.5908L18.4143 24.9497H25.751C30.978 24.9497 34.0271 22.6812 34.8044 18.1953L36.6834 7.29604C37.025 5.18954 36.7004 3.54357 35.7097 2.39224L35.7012 2.38372ZM27.5019 4.59256H29.0563C30.0129 4.59256 30.6193 4.7546 30.9012 5.09573C31.1745 5.41128 31.2257 5.98268 31.072 6.88668L29.1161 18.3061C28.8428 19.918 28.3047 20.7453 26.1439 20.7453H24.7346L27.5019 4.59256Z" fill="var(--fill-0, #414042)"/>
<path id="Vector_3" d="M49.768 0.396609L44.4129 15.1421L44.0969 0.396609H38.4257L40.0399 24.9497H45.5232L55.499 0.396609H49.768Z" fill="var(--fill-0, #414042)"/>
<path id="Vector_4" d="M66.4142 24.9497L65.3808 0.396609H59.0434L49.6484 24.9497H55.1658L56.8484 20.0289H60.948V24.9497H66.4142ZM60.8626 15.7903H58.3431L60.8028 8.85673L60.8626 15.7903Z" fill="var(--fill-0, #414042)"/>
<path id="Vector_5" d="M82.6164 0.396609L80.4983 12.7798L77.2783 0.396609H72.2734L68.0968 24.9497H73.2726L75.4847 11.9269L79.0207 24.9497H83.6157L87.8008 0.396609H82.6164Z" fill="var(--fill-0, #414042)"/>
<path id="Vector_6" d="M89.2869 0.396609L88.5439 4.76313H93.6172L90.1837 24.9497H95.8037L99.2371 4.76313H104.225L104.977 0.396609H89.2869Z" fill="var(--fill-0, #414042)"/>
<path id="Vector_7" d="M115.977 24.9497L114.944 0.396582H108.606L99.2114 24.9497H104.729L106.403 20.0288H110.502V24.9497H115.969H115.977ZM110.426 15.7903H107.906L110.366 8.8567L110.426 15.7903Z" fill="var(--fill-0, #414042)"/>
<path id="Vector_8" d="M133.999 1.98711C132.897 0.690798 131.044 0 128.626 0C124.1 0 120.641 2.49028 120.017 6.20011L117.822 18.8732C117.515 20.7409 117.865 22.3357 118.839 23.4871C119.872 24.7066 121.572 25.3463 123.75 25.3463C125.748 25.3463 127.371 24.7919 128.797 23.6235L129.182 24.9539H132.017L134.204 12.1529H125.945L125.278 16.0589H128.114L127.644 18.805C127.388 20.2463 126.542 20.9456 125.065 20.9456C124.373 20.9456 123.903 20.8006 123.647 20.5021C123.416 20.2292 123.348 19.7772 123.442 19.1803L125.637 6.25128C125.859 4.9635 126.636 4.34093 128.012 4.34093C128.644 4.34093 129.079 4.47738 129.301 4.75029C129.515 5.00614 129.575 5.43256 129.463 6.02101L128.908 9.53469H134.409L134.947 6.25981C135.237 4.56267 134.904 3.08726 133.982 2.00416L133.999 1.98711Z" fill="var(--fill-0, #414042)"/>
<path id="Vector_9" d="M151.798 4.6949L152.55 0.396609H139.337L135.152 24.9497H148.68L149.424 20.5832H141.515L142.574 14.3405H148.168L148.868 10.1786H143.274L144.205 4.6949H151.798Z" fill="var(--fill-0, #414042)"/>
</g>
</svg>
</svg>
