<svg preserveAspectRatio="xMidYMid meet" width="100%" height="100%" overflow="visible" style="display: block;" viewBox="0 0 292.93 111.61" fill="none" xmlns="http://www.w3.org/2000/svg">
<svg x="0" y="0" width="292.93" height="82.03" viewBox="0 0 292.93 82.03" preserveAspectRatio="xMidYMid meet">
<g id="Group">
<path id="Vector" fill-rule="evenodd" clip-rule="evenodd" d="M123.98 0H108.12L104.36 13.1C107.54 14.11 109.86 17.14 109.86 20.74C109.86 25.16 106.37 28.74 102.06 28.74C97.75 28.74 94.26 25.16 94.26 20.74C94.26 17.11 96.61 14.06 99.84 13.08L96.05 0H80.15L92.85 39.37L78.86 82.03H95.1L102.12 59.73L109.09 82.03H125.28L111.38 39.44L123.98 0Z" fill="var(--fill-0, #E10500)"/>
<path id="Vector_2" fill-rule="evenodd" clip-rule="evenodd" d="M96.51 20.89C96.51 24.13 99.03 26.76 102.13 26.76C105.23 26.76 107.75 24.13 107.75 20.89C107.75 17.65 105.23 15.02 102.13 15.02C99.03 15.02 96.51 17.65 96.51 20.89Z" fill="var(--fill-0, #E10500)"/>
<path id="Vector_3" fill-rule="evenodd" clip-rule="evenodd" d="M290.88 28.47L292.93 21.27L287.15 16.07H268.05L259.64 21.27L255.49 35.32L272.55 40.34L271.08 45.39H267.69L269 40.88H253.9L251.42 49.4L257.62 55.25H275.79L284.61 49.75L289.1 34.36L272.33 29.47L273.39 25.93H276.78L276.04 28.47H290.87H290.88Z" fill="var(--fill-0, #E10500)"/>
<path id="Vector_4" fill-rule="evenodd" clip-rule="evenodd" d="M238.59 33.54H235.1L237.37 25.93H240.74L238.59 33.54ZM257.03 21.36L251.19 16.06H225.29L213.9 55.24H228.76L232.27 43.12H243.45L252.23 37.91L257.03 21.35V21.36Z" fill="var(--fill-0, #E10500)"/>
<path id="Vector_5" fill-rule="evenodd" clip-rule="evenodd" d="M200.6 43.41L201.66 39.75H213.06L216.09 29.6H204.73L205.77 25.94H219.81L222.54 16.07H193.46L182.03 55.25H211.08L214.51 43.41H200.59H200.6Z" fill="var(--fill-0, #E10500)"/>
<path id="Vector_6" fill-rule="evenodd" clip-rule="evenodd" d="M171.47 31.29H167.89L169.45 25.93H173.03L171.48 31.29H171.47ZM180 35.19L186.21 31.42L189.03 21.5L183.27 16.06H157.2L145.8 55.24H160.88L165.42 39.74H169.01L164.49 55.24H179.25L184.01 38.86L180 35.18V35.19Z" fill="var(--fill-0, #E10500)"/>
<path id="Vector_7" fill-rule="evenodd" clip-rule="evenodd" d="M134.68 33.47C134.68 33.47 131.15 33.53 131.14 33.53L133.34 25.94H136.87L134.67 33.47H134.68ZM152.99 21.38L147.3 16.06H121.94L114.42 39.32L119.72 55.25H124.73L128.35 43.13H139.31L148.19 38.01L152.99 21.38Z" fill="var(--fill-0, #E10500)"/>
<g id="Group_2">
<path id="Vector_8" fill-rule="evenodd" clip-rule="evenodd" d="M69.72 39.47L75.67 25.94H76.8L75.2 39.5L69.72 39.48V39.47ZM84.62 55.25L89.63 39.4L82.32 16.06H68.61L50.27 52.87L60.48 16.06H40.22L29.38 37.79L31.09 16.06H10.91L0 55.25H12.37L19.14 31.23L18.53 55.25H30.96L43.78 31.23L36.9 55.25H63.93L66.64 48.92H73.92L73.08 55.25H84.61H84.62Z" fill="var(--fill-0, #E10500)"/>
</g>
</g>
</svg>
<svg x="0" y="89.45" width="292.93" height="22.16" viewBox="0 0 292.93 22.16" preserveAspectRatio="xMidYMid meet">
<g id="Group">
<path id="Vector" d="M216.46 0.889999C215.25 0.469999 213.82 0.260002 212.17 0.260002H204.69V21.92H210.17V15.19H212.36C213.9 15.19 215.27 14.96 216.46 14.5C217.67 14.02 218.62 13.28 219.31 12.28C220 11.26 220.34 9.94 220.34 8.34V6.96001C220.34 5.27001 220 3.94 219.31 2.98C218.64 2 217.69 1.3 216.46 0.880005V0.889999ZM214.83 8.24001C214.83 9.20001 214.57 9.88 214.05 10.27C213.55 10.67 212.85 10.86 211.95 10.86H210.17V4.57H211.95C212.87 4.57 213.58 4.77 214.08 5.16C214.58 5.54 214.83 6.2 214.83 7.16V8.22V8.24001Z" fill="var(--fill-0, #E10500)"/>
<path id="Vector_2" d="M165.31 13.5C166.06 13.07 166.72 12.55 167.21 11.85C167.9 10.85 168.24 9.54 168.24 7.94V6.84C168.24 5.19 167.92 3.90001 167.27 2.96001C166.64 2.00001 165.76 1.31 164.61 0.889999C163.48 0.469999 162.16 0.260002 160.63 0.260002H152.65V21.92H158.13V14.66H160.45C160.83 15.61 161.21 16.59 161.6 17.63C162.18 19.15 162.72 20.58 163.2 21.92H169.02C168.31 20.19 167.58 18.49 166.83 16.82C166.34 15.71 165.82 14.6 165.3 13.5H165.31ZM158.14 4.58H160.21C161 4.58 161.62 4.78001 162.06 5.17001C162.52 5.55001 162.75 6.17 162.75 7.05V7.86C162.75 8.74 162.51 9.36001 162.03 9.74001C161.57 10.12 160.97 10.3 160.21 10.3H158.14V4.57V4.58Z" fill="var(--fill-0, #E10500)"/>
<path id="Vector_3" d="M240.02 8.75H234.86V0.260002H229.38V21.92H234.86V13.53H240.02V21.92H245.5V0.260002H240.02V8.75Z" fill="var(--fill-0, #E10500)"/>
<path id="Vector_4" d="M290.74 16.82C290.25 15.7 289.73 14.6 289.21 13.5C289.96 13.07 290.62 12.55 291.11 11.85C291.8 10.85 292.14 9.54 292.14 7.94V6.84C292.14 5.19 291.82 3.90001 291.17 2.96001C290.54 2.00001 289.66 1.31 288.51 0.889999C287.38 0.469999 286.06 0.260002 284.53 0.260002H276.55V21.92H282.03V14.66H284.35C284.73 15.61 285.11 16.59 285.51 17.63C286.09 19.15 286.63 20.58 287.11 21.92H292.93C292.22 20.19 291.49 18.49 290.74 16.82ZM282.04 4.58H284.11C284.9 4.58 285.52 4.78001 285.96 5.17001C286.42 5.55001 286.65 6.17 286.65 7.05V7.86C286.65 8.74 286.41 9.36001 285.93 9.74001C285.47 10.12 284.87 10.3 284.11 10.3H282.04V4.57V4.58Z" fill="var(--fill-0, #E10500)"/>
<path id="Vector_5" d="M254.54 21.92H267.53V17.35H260.01V13.35H267.18V8.78001H260.01V4.83H267.53V0.260002H254.54V21.92Z" fill="var(--fill-0, #E10500)"/>
<path id="Vector_6" d="M192.56 7.4C192.04 5 191.5 2.62 190.93 0.260002H182.73C181.9 3.83 181.08 7.43001 180.29 11.06C179.52 14.69 178.78 18.31 178.07 21.92H183.64C183.86 20.52 184.06 19.18 184.27 17.88H189.37C189.59 19.18 189.8 20.52 190.02 21.92H195.65C195.17 19.5 194.67 17.08 194.15 14.66C193.63 12.22 193.1 9.8 192.55 7.4H192.56ZM185.89 8.5C186.12 7.23 186.34 6.06001 186.55 4.99001H186.96C187.13 5.72001 187.29 6.49001 187.46 7.31001C187.63 8.10001 187.79 8.92 187.96 9.75C188.13 10.58 188.28 11.43 188.43 12.29C188.5 12.65 188.57 13.09 188.65 13.51H185.01C185.08 13.08 185.15 12.68 185.22 12.32C185.45 11.03 185.68 9.75 185.91 8.5H185.89Z" fill="var(--fill-0, #E10500)"/>
<path id="Vector_7" d="M35.33 0.260002V8.75H30.16V0.260002H24.69V21.92H30.16V13.53H35.33V21.92H40.81V0.260002H35.33Z" fill="var(--fill-0, #E10500)"/>
<path id="Vector_8" d="M11.77 0.889999C10.56 0.469999 9.13 0.260002 7.48 0.260002H0V21.92H5.48V15.19H7.67C9.21 15.19 10.58 14.96 11.77 14.5C12.98 14.02 13.93 13.28 14.62 12.28C15.31 11.26 15.65 9.94 15.65 8.34V6.96001C15.65 5.27001 15.31 3.94 14.62 2.98C13.95 2 13 1.3 11.77 0.880005V0.889999ZM10.14 8.24001C10.14 9.20001 9.88 9.88 9.36 10.27C8.86 10.67 8.16 10.86 7.26 10.86H5.48V4.57H7.26C8.18 4.57 8.89 4.77 9.39 5.16C9.89 5.54 10.14 6.2 10.14 7.16V8.22V8.24001Z" fill="var(--fill-0, #E10500)"/>
<path id="Vector_9" d="M65.06 2.39C64.35 1.6 63.42 1 62.27 0.610001C61.14 0.210001 59.87 0.0200043 58.45 0.0200043C57.03 0.0200043 55.76 0.220001 54.63 0.610001C53.5 1 52.57 1.6 51.84 2.39C51.17 3.1 50.67 4 50.34 5.08C50.01 6.14 49.84 7.45001 49.84 8.99001V13.18C49.84 14.7 50.01 16.01 50.34 17.09C50.67 18.15 51.17 19.05 51.84 19.78C52.57 20.55 53.5 21.15 54.63 21.56C55.76 21.96 57.03 22.15 58.45 22.15C59.87 22.15 61.14 21.95 62.27 21.56C63.42 21.14 64.35 20.55 65.06 19.78C65.73 19.05 66.23 18.15 66.56 17.09C66.89 16 67.06 14.7 67.06 13.18V8.99001C67.06 7.45001 66.89 6.14 66.56 5.08C66.23 3.99 65.73 3.1 65.06 2.39ZM61.55 13.85C61.55 14.48 61.49 15 61.36 15.42C61.26 15.84 61.08 16.19 60.83 16.48C60.56 16.77 60.22 17 59.83 17.17C59.43 17.34 58.97 17.42 58.45 17.42C57.93 17.42 57.47 17.34 57.07 17.17C56.67 17 56.34 16.77 56.07 16.48C55.82 16.19 55.63 15.83 55.51 15.42C55.41 15 55.35 14.48 55.35 13.85V8.34C55.35 7.71 55.4 7.19 55.51 6.77C55.64 6.33 55.82 5.98001 56.07 5.71001C56.34 5.42001 56.68 5.19 57.07 5.02C57.46 4.85 57.93 4.77 58.45 4.77C58.97 4.77 59.43 4.85 59.83 5.02C60.23 5.19 60.56 5.42001 60.83 5.71001C61.08 5.98001 61.26 6.34 61.36 6.77C61.49 7.19 61.55 7.71 61.55 8.34V13.85Z" fill="var(--fill-0, #E10500)"/>
<path id="Vector_10" d="M115.09 2.39C114.38 1.6 113.45 1 112.3 0.610001C111.17 0.210001 109.9 0.0200043 108.48 0.0200043C107.06 0.0200043 105.79 0.220001 104.66 0.610001C103.53 1 102.6 1.6 101.87 2.39C101.2 3.1 100.7 4 100.37 5.08C100.04 6.14 99.87 7.45001 99.87 8.99001V13.18C99.87 14.7 100.04 16.01 100.37 17.09C100.7 18.15 101.2 19.05 101.87 19.78C102.6 20.55 103.53 21.15 104.66 21.56C105.79 21.96 107.06 22.15 108.48 22.15C109.9 22.15 111.17 21.95 112.3 21.56C113.45 21.14 114.38 20.55 115.09 19.78C115.76 19.05 116.26 18.15 116.59 17.09C116.92 16 117.09 14.7 117.09 13.18V8.99001C117.09 7.45001 116.92 6.14 116.59 5.08C116.26 3.99 115.76 3.1 115.09 2.39ZM111.58 13.85C111.58 14.48 111.52 15 111.39 15.42C111.29 15.84 111.11 16.19 110.86 16.48C110.59 16.77 110.25 17 109.86 17.17C109.46 17.34 109 17.42 108.48 17.42C107.96 17.42 107.5 17.34 107.1 17.17C106.7 17 106.37 16.77 106.1 16.48C105.85 16.19 105.66 15.83 105.54 15.42C105.44 15 105.38 14.48 105.38 13.85V8.34C105.38 7.71 105.43 7.19 105.54 6.77C105.67 6.33 105.85 5.98001 106.1 5.71001C106.37 5.42001 106.71 5.19 107.1 5.02C107.49 4.85 107.96 4.77 108.48 4.77C109 4.77 109.46 4.85 109.86 5.02C110.26 5.19 110.59 5.42001 110.86 5.71001C111.11 5.98001 111.29 6.34 111.39 6.77C111.52 7.19 111.58 7.71 111.58 8.34V13.85Z" fill="var(--fill-0, #E10500)"/>
<path id="Vector_11" d="M134.86 13.88H138.24C138.24 14.49 138.18 15 138.05 15.41C137.95 15.83 137.77 16.18 137.52 16.47C137.29 16.74 136.94 16.97 136.46 17.16C136 17.33 135.5 17.41 134.96 17.41C134.42 17.41 133.95 17.33 133.49 17.16C133.03 16.99 132.66 16.76 132.36 16.47C132.13 16.22 131.95 15.89 131.83 15.47C131.7 15.03 131.64 14.49 131.64 13.84V8.11C131.64 7.57 131.71 7.09001 131.86 6.67001C132.01 6.23001 132.21 5.87 132.49 5.57C132.72 5.34 133.02 5.15 133.4 5.01C133.78 4.84 134.22 4.76 134.75 4.76C135.19 4.76 135.6 4.82 135.97 4.95C136.35 5.08 136.67 5.27 136.94 5.54C137.17 5.75 137.38 6.04001 137.57 6.42001C137.78 6.77001 137.96 7.19001 138.1 7.67001L143.11 6.42001C142.86 5.23001 142.47 4.24 141.95 3.45C141.45 2.66 140.84 2.01 140.13 1.51C139.48 1.03 138.71 0.660004 137.81 0.410004C136.91 0.140004 135.88 0 134.71 0C133.4 0 132.21 0.180006 131.14 0.530006C130.08 0.880006 129.18 1.43 128.45 2.16C127.7 2.89 127.12 3.81 126.73 4.91C126.33 6.02 126.14 7.31 126.14 8.79V13.11C126.14 14.63 126.31 15.94 126.64 17.02C126.97 18.08 127.49 18.98 128.17 19.71C128.9 20.48 129.83 21.09 130.96 21.53C132.09 21.95 133.4 22.16 134.9 22.16C136.4 22.16 137.69 21.95 138.81 21.53C139.94 21.09 140.87 20.49 141.6 19.71C142.29 18.98 142.8 18.08 143.13 17.02C143.46 15.93 143.63 14.63 143.63 13.11V9.7H134.87V13.86L134.86 13.88Z" fill="var(--fill-0, #E10500)"/>
<path id="Vector_12" d="M76.09 4.83H80.73V21.92H86.2V4.83H90.84V0.260002H76.09V4.83Z" fill="var(--fill-0, #E10500)"/>
</g>
</svg>
</svg>
