<svg width="49" height="28" viewBox="0 0 49 28" fill="none" xmlns="http://www.w3.org/2000/svg">
<path d="M1.25 1.25H47.25V7.63889C45.6084 7.63889 44.0341 8.28274 42.8733 9.42879C41.7125 10.5748 41.0604 12.1292 41.0604 13.75C41.0604 15.3708 41.7125 16.9252 42.8733 18.0712C44.0341 19.2173 45.6084 19.8611 47.25 19.8611V26.25H1.25V19.8611C2.89158 19.8611 4.46593 19.2173 5.62671 18.0712C6.78748 16.9252 7.4396 15.3708 7.4396 13.75C7.4396 12.1292 6.78748 10.5748 5.62671 9.42879C4.46593 8.28274 2.89158 7.63889 1.25 7.63889V1.25Z" stroke="url(#paint0_linear_1092_767)" stroke-width="3.9"/>
<defs>
<linearGradient id="paint0_linear_1092_767" x1="1.25" y1="-7.57353" x2="27.2592" y2="32.3471" gradientUnits="userSpaceOnUse">
<stop/>
<stop offset="1" stop-color="#818181"/>
</linearGradient>
</defs>
</svg>
